<svg xmlns="http://www.w3.org/2000/svg" width="504" height="175.2" viewBox="0 0 504 175.2">
  <g id="american-express" transform="translate(0 -164.4)">
    <path id="Path_21" data-name="Path 21" d="M43.2,207.6H60.8L52,185.2Z" fill="#f2f2f2"/>
    <path id="Path_23" data-name="Path 23" d="M432.8,164.4V174l-4.8-9.6H390.4V174l-4.8-9.6H334.4c-8.8,0-16,1.6-22.4,4.8v-4.8H276v4.8c-4-3.2-8.8-4.8-15.2-4.8H132l-8.8,20-8.8-20H73.6V174l-4.8-9.6H34.4L18.4,202,0,243.6H40.8l4.8-12.8H56.8l4.8,12.8H108V234l4,9.6h23.2l4-9.6v9.6H250.4V222.8H252c1.6,0,1.6,0,1.6,2.4v17.6h57.6V238a47.924,47.924,0,0,0,21.6,4.8h24l4.8-12.8h11.2l4.8,12.8H424v-12l7.2,12h37.6V164.4ZM162.4,231.6H148.8v-44l-19.2,44h-12l-19.2-44v44H71.2l-5.6-12H38.4l-4.8,12.8H18.4l24-56.8h20l22.4,53.6V175.6h21.6L124,214l16-38.4h22.4Zm54.4-44H185.6V198H216v11.2H185.6v11.2h31.2v12H172V175.6h44.8Zm60,23.2a20.014,20.014,0,0,1,2.4,10.4v11.2H265.6v-7.2c0-3.2,0-8-2.4-11.2-2.4-2.4-4.8-2.4-9.6-2.4H239.2v20.8H225.6V175.6H256c7.2,0,12,0,16,2.4s6.4,6.4,6.4,12.8c0,8.8-5.6,13.6-9.6,15.2A15.213,15.213,0,0,1,276.8,210.8Zm24,20.8H287.2V174.8h13.6Zm157.6,0H439.2l-25.6-42.4v42.4H386.4l-4.8-12h-28l-4.8,12.8H333.6c-6.4,0-14.4-1.6-19.2-6.4s-7.2-11.2-7.2-21.6c0-8,1.6-16,7.2-22.4,4-4.8,11.2-6.4,20-6.4h12.8v12H334.4c-4.8,0-7.2.8-10.4,3.2-2.4,2.4-4,7.2-4,12.8,0,6.4.8,10.4,4,13.6,2.4,2.4,5.6,3.2,9.6,3.2h5.6l18.4-44h20L400,230V176.4h20l23.2,39.2V176.4h13.6v55.2Z" fill="#f2f2f2"/>
    <path id="Path_26" data-name="Path 26" d="M136.8,282.8v10.4h29.6v11.2H136.8v12h32.8l15.2-16.8-14.4-16.8Z" fill="#f2f2f2"/>
    <path id="Path_27" data-name="Path 27" d="M500,296.4v-36H466.4q-10.8,0-16.8,4.8v-4.8H412.8c-5.6,0-12.8,1.6-16,4.8v-4.8H332v4.8c-4.8-4-13.6-4.8-17.6-4.8H271.2v4.8c-4-4-13.6-4.8-18.4-4.8h-48l-11.2,12-10.4-12h-72v78.4h70.4l11.2-12,10.4,12h43.2V320.4H252c5.6,0,12.8,0,18.4-2.4v21.6h36V318.8H308c2.4,0,2.4,0,2.4,2.4v18.4H419.2c7.2,0,14.4-1.6,18.4-4.8v4.8H472c7.2,0,14.4-.8,19.2-4h0c8-4.8,12.8-13.6,12.8-24A30.637,30.637,0,0,0,500,296.4ZM252,309.2H236v19.2H210.4l-16-18.4-16.8,18.4H124.8V271.6h53.6l16,18.4,16.8-18.4h42.4c10.4,0,22.4,3.2,22.4,18.4C275.2,306,264,309.2,252,309.2Zm80-3.2c1.6,2.4,2.4,5.6,2.4,10.4v11.2H320.8v-7.2c0-3.2,0-8.8-2.4-11.2-1.6-2.4-4.8-2.4-9.6-2.4H294.4v20.8H280.8V270.8h30.4c6.4,0,12,0,16,2.4a14.151,14.151,0,0,1,7.2,12.8c0,8.8-5.6,13.6-9.6,15.2Q330.8,303.6,332,306Zm55.2-23.2H356v10.4h30.4v11.2H356v11.2h31.2v12H342.4V270.8h44.8Zm33.6,44.8H395.2v-12h25.6c2.4,0,4,0,5.6-1.6a5.8,5.8,0,0,0,0-8,6.763,6.763,0,0,0-4.8-1.6c-12.8-.8-28,0-28-17.6,0-8,4.8-16.8,19.2-16.8h26.4v13.6H414.4c-2.4,0-4,0-5.6.8s-1.6,2.4-1.6,4c0,2.4,1.6,3.2,3.2,4a10.147,10.147,0,0,0,4.8.8h7.2c7.2,0,12,1.6,15.2,4.8,2.4,2.4,4,6.4,4,12C441.6,322,434.4,327.6,420.8,327.6Zm68.8-5.6c-3.2,3.2-8.8,5.6-16.8,5.6H447.2v-12h25.6c2.4,0,4,0,5.6-1.6a5.8,5.8,0,0,0,0-8,6.763,6.763,0,0,0-4.8-1.6c-12.8-.8-28,0-28-17.6,0-8,4.8-16.8,19.2-16.8h26.4v13.6h-24c-2.4,0-4,0-5.6.8s-1.6,2.4-1.6,4c0,2.4.8,3.2,3.2,4a10.147,10.147,0,0,0,4.8.8h7.2c7.2,0,12,1.6,15.2,4.8a.783.783,0,0,1,.8.8c2.4,3.2,3.2,7.2,3.2,11.2A16.282,16.282,0,0,1,489.6,322Z" fill="#f2f2f2"/>
    <g id="Group_4" data-name="Group 4">
      <path id="Path_28" data-name="Path 28" d="M261.6,188.4c-1.6-.8-4-.8-6.4-.8h-16v12.8h16c2.4,0,4.8,0,6.4-.8s2.4-3.2,2.4-5.6C264.8,190.8,263.2,189.2,261.6,188.4Z" fill="#f2f2f2"/>
      <path id="Path_29" data-name="Path 29" d="M358.4,207.6h18.4L368,185.2Z" fill="#f2f2f2"/>
      <path id="Path_30" data-name="Path 30" d="M222.4,322.8V277.2l-20.8,22.4Z" fill="#f2f2f2"/>
    </g>
    <g id="Group_5" data-name="Group 5">
      <path id="SVGCleanerId_0_1_" d="M252.8,282.8H236v14.4h17.6c4.8,0,8-2.4,8-7.2C260.8,285.2,257.6,282.8,252.8,282.8Z" fill="#f2f2f2"/>
    </g>
    <g id="Group_6" data-name="Group 6">
      <path id="SVGCleanerId_1_1_" d="M317.6,284.4c-1.6-.8-4-.8-6.4-.8h-16v12.8h16c2.4,0,4.8,0,6.4-.8s2.4-3.2,2.4-5.6C320.8,286.8,319.2,285.2,317.6,284.4Z" fill="#f2f2f2"/>
    </g>
  </g>
</svg>
