<svg xmlns="http://www.w3.org/2000/svg" width="422" height="175.2" viewBox="0 0 422 175.2">
  <g id="Group_14" data-name="Group 14" transform="translate(-2066 -1204)">
    <g id="apple" transform="translate(2033.971 1204)">
      <path id="Path_76" data-name="Path 76" d="M125.984,26.627C132.576,19.569,137.036,9.771,135.815,0c-9.5.339-21.008,5.575-27.825,12.632-6.111,6.247-11.461,16.232-10.033,25.811C108.554,39.16,119.381,33.673,125.984,26.627ZM146.21,94.1c-.2-21.905,17.343-32.426,18.12-32.935-9.864-14.875-25.226-16.911-30.7-17.14-13.081-1.373-25.506,7.922-32.147,7.922-6.614,0-16.845-7.741-27.694-7.534-14.262.235-27.4,8.54-34.729,21.7-14.816,26.48-3.8,65.706,10.64,87.184,7.058,10.515,15.461,22.31,26.5,21.884,10.652-.427,14.667-7.085,27.519-7.085s16.456,7.085,27.7,6.871c11.445-.213,18.688-10.717,25.686-21.265a96.694,96.694,0,0,0,11.625-24.6C168.487,128.971,146.445,120.3,146.21,94.1Z" fill="#ccd0d2"/>
    </g>
    <text id="Apple-2" data-name="Apple" transform="translate(2223 1335)" fill="#ccd0d2" font-size="100" font-family="ITCGaramondStd-Bk, ITC Garamond Std"><tspan x="0" y="0">Apple</tspan></text>
  </g>
</svg>
