<svg xmlns="http://www.w3.org/2000/svg" width="504" height="105.378" viewBox="0 0 504 105.378">
  <g id="Bank_of_America_logo" transform="translate(0 -29.4)">
    <path id="Path_70" data-name="Path 70" d="M651.96,66.333c18.487-15.846,44.458-31.252,58.719-36.8-2.2-1.409-5.634-3.433-9.508-5.634-18.4,6.074-39.88,19.544-59.071,34.774,3.257,2.465,6.691,5.018,9.86,7.659Z" transform="translate(-399.916 68.445)" fill="#e31837"/>
    <path id="Path_71" data-name="Path 71" d="M638.878,22.709c-2.729-1.321-5.722-2.553-8.011-3.609A198.107,198.107,0,0,0,603.4,35.915c2.465,1.321,5.106,2.905,7.923,4.49,8.8-6.515,17.7-12.677,27.555-17.7Z" transform="translate(-395.285 69.019)" fill="#012169"/>
    <path id="Path_72" data-name="Path 72" d="M658.188,13.511c-3.345-1.849-14.966-6.162-22.977-8.011-2.377.88-5.722,2.2-8.011,3.169,2.905.792,13.733,3.7,22.977,8.363C652.554,15.888,655.9,14.48,658.188,13.511Z" transform="translate(-398.133 70.647)" fill="#e31837"/>
    <path id="Path_73" data-name="Path 73" d="M614.027,13.3A243.72,243.72,0,0,0,587,28.354c2.113.968,4.226,1.761,7.131,3.169,13.029-8.8,23.241-14.174,27.291-15.934-2.905-1.056-5.634-1.761-7.395-2.289Z" transform="translate(-393.323 69.713)" fill="#012169"/>
    <path id="Path_74" data-name="Path 74" d="M665.3,10.124c2.377-.792,5.106-1.5,7.483-2.2A167.572,167.572,0,0,0,649.543,0c-1.232.352-4.93,1.321-7.483,2.113A158.674,158.674,0,0,1,665.3,10.124Zm-43.4,33.1c2.817,1.673,5.81,3.962,8.716,5.9,19.28-14.966,38.3-26.5,59.159-33.013-2.905-1.5-5.458-2.817-8.716-4.4C668.559,14.878,647.166,23.417,621.9,43.225Z" transform="translate(-397.499 71.305)" fill="#e31837"/>
    <path id="Path_75" data-name="Path 75" d="M0,62.413H14.086c7.131,0,10.476-3.7,10.476-8.892,0-4.226-2.2-7.043-6.779-7.923,4.05-.968,5.9-3.433,5.9-7.043,0-4.578-3.345-8.275-10.476-8.275H.088V62.413ZM12.237,48.768c2.641,0,4.49,1.321,4.49,3.962,0,2.817-1.761,3.962-4.49,3.962H7.659V48.68h4.578Zm-.88-12.853c2.641,0,4.49,1.144,4.49,3.786s-1.761,3.785-4.49,3.785h-3.7V35.915ZM53,30.192H45.074L33.013,62.413h8.011l2.2-6.691H54.846l2.2,6.691h8.1L53,30.192Zm-3.962,7.747,3.786,11.885H45.074l3.962-11.885Zm56.254-7.747H97.983V51.761L84.249,30.192H76.062V62.413h7.307V40.933L97.1,62.413h8.187V30.192Zm33.717,32.221L128.443,46.039V62.413h-7.835V30.192h7.835V45.686l10.036-15.494h8.715L136.63,45.686l11.533,16.727ZM175.894,46.3c0,6.427,3.874,10.388,8.892,10.388s8.892-3.962,8.892-10.388-3.874-10.388-8.892-10.388S175.894,39.876,175.894,46.3Zm-8.275,0c.088-9.42,6.691-16.815,17.167-16.815s17.079,7.395,17.167,16.815c-.088,9.42-6.691,16.815-17.167,16.815S167.707,55.722,167.619,46.3Zm45.074,16.11h7.835V49.736H230.74V43.574H220.527V36.355h12.325l1.409-6.162H212.692V62.413Zm58.1-32.221h-7.923L250.811,62.413h8.011l2.2-6.691h11.621l2.2,6.691h8.1L270.8,30.192Zm-3.962,7.747,3.785,11.885h-7.747Zm62.593-7.747h-9.156l-8.363,17.431-8.363-17.431h-9.156V62.413h7.043V40.845L311.82,62.413l10.388-21.569V62.413h7.307Zm15.23,32.221h22.009V56.251H352.492V49.032h11.18V43.045h-11.18V36.355h12.941l1.409-6.162H344.657Zm51.853,0h8.539l-8.011-13.645c4.4-1.232,6.515-4.314,6.515-8.8,0-5.81-3.521-9.684-11.445-9.684H379.695V62.5h7.659V49.824h2.113l7.043,12.589Zm-5.9-26.234c3.257,0,4.93,1.409,4.93,4.138s-1.673,4.138-4.93,4.138h-3.345V36.179h3.345Zm26.146,26.234h7.835V30.28h-7.835Zm46.394-8.627a13.816,13.816,0,0,1-8.363,2.817c-5.986,0-10.212-4.138-10.212-10.3S448.714,36,454.524,36a13.347,13.347,0,0,1,8.187,2.817V31.513a18.27,18.27,0,0,0-9.156-2.113c-10.652,0-17.343,7.395-17.431,16.815.088,9.508,6.6,16.815,17.431,16.815a19.649,19.649,0,0,0,9.508-2.113V53.786h.088Zm28.7-23.593h-7.923L471.867,62.413h8.011l2.2-6.691H493.7l2.2,6.691H504L491.851,30.192Zm-3.962,7.747,3.785,11.885h-7.747Z" transform="translate(0 0)" fill="#f2f2f2"/>
  </g>
</svg>
