<svg xmlns="http://www.w3.org/2000/svg" width="271.56" height="175.2" viewBox="0 0 271.56 175.2">
  <g id="citi" transform="translate(0 -88)">
    <path id="Path_49" data-name="Path 49" d="M221.9,208H200V317.5h21.9Z" transform="translate(-90.5 -54.3)" fill="#3042c6"/>
    <g id="Group_11" data-name="Group 11" transform="translate(0 119.098)">
      <path id="Path_50" data-name="Path 50" d="M272,179.4v17.52h21.9v63.072c0,8.322,1.314,15.33,6.132,20.148,4.38,5.256,10.074,7.884,17.52,7.884s14.016-1.314,19.71-4.818h.438v-.438l4.818-20.586-1.314.876c-6.132,3.5-10.512,5.256-15.768,5.256-7.008,0-9.636-3.942-9.636-12.264v-59.13h21.9V179.4H315.8V144.8l-21.9,11.826V179.4Z" transform="translate(-123.08 -144.8)" fill="#32357f"/>
      <path id="Path_51" data-name="Path 51" d="M453.9,208H432V317.5h21.9Z" transform="translate(-195.48 -173.398)" fill="#32357f"/>
      <path id="Path_52" data-name="Path 52" d="M95.484,222.034l-.438-.438Q79.935,203.2,56.94,203.2c-16.206,0-29.346,4.818-39.858,14.454C5.694,228.166,0,241.744,0,259.264s5.694,31.1,17.082,41.61c10.512,9.636,23.652,14.454,39.858,14.454q22.995,0,38.106-18.4l.438-.438-12.7-15.33-.438.438c-8.322,7.884-17.082,12.264-26.28,12.264-9.636,0-17.958-3.5-24.09-10.074-6.57-6.57-9.636-14.892-9.636-24.966s3.066-18.4,9.636-24.966,14.454-9.636,24.09-9.636c9.2,0,17.958,4.38,26.28,12.264l.438.438,12.7-14.892Z" transform="translate(0 -171.226)" fill="#32357f"/>
    </g>
    <path id="Path_53" data-name="Path 53" d="M196.242,135.3a93.131,93.131,0,0,1,29.784-20.586,80.28,80.28,0,0,1,33.726-7.008,83.73,83.73,0,0,1,34.164,7.008,90.711,90.711,0,0,1,29.346,21.024l.438.876h24.966l-.876-1.752a107.473,107.473,0,0,0-38.982-33.726C293.04,92.38,276.834,88,259.752,88a104.816,104.816,0,0,0-49.494,12.264,108.637,108.637,0,0,0-38.982,34.164l-.876,1.752h25.4l.438-.876Z" transform="translate(-77.106)" fill="#ea2230"/>
    <path id="Path_54" data-name="Path 54" d="M221.9,219.218,200,214.4v106h21.9V219.218Z" transform="translate(-90.5 -57.196)" fill="#32357f"/>
    <path id="Path_55" data-name="Path 55" d="M272,179.4v17.52h21.9v63.072c0,8.322,1.314,15.33,6.132,20.148,4.38,5.256,10.074,7.884,17.52,7.884s14.016-1.314,19.71-4.818h.438v-.438l4.818-20.586-1.314.876c-6.132,3.5-10.512,5.256-15.768,5.256-7.008,0-9.636-3.942-9.636-12.264v-59.13h21.9V179.4H315.8V144.8l-21.9,11.826V179.4Z" transform="translate(-123.08 -25.702)" fill="#3042c6"/>
    <path id="Path_56" data-name="Path 56" d="M272,189.176V206.7h21.9v63.072c0,8.322,1.314,15.33,6.132,20.148,4.38,5.256,10.074,7.884,17.52,7.884s14.016-1.314,19.71-4.818h.438v-.438l4.818-20.586-1.314.876c-6.132,3.5-10.512,5.256-15.768,5.256-7.008,0-9.636-3.942-9.636-12.264V206.7h21.9v-17.52H315.8v-13.14L293.9,166.4v22.776Z" transform="translate(-123.08 -35.476)" fill="#32357f"/>
    <path id="Path_57" data-name="Path 57" d="M453.9,208H432V317.5h21.9Z" transform="translate(-195.48 -54.3)" fill="#3042c6"/>
    <path id="Path_58" data-name="Path 58" d="M453.9,208,432,215.446V317.5h21.9Z" transform="translate(-195.48 -54.3)" fill="#32357f"/>
    <path id="Path_59" data-name="Path 59" d="M95.046,222.472V221.6Q79.935,203.2,56.94,203.2c-16.206,0-29.346,4.818-39.858,14.454C5.694,228.166,0,241.744,0,259.264s5.694,31.1,17.082,41.61c10.512,9.636,23.652,14.454,39.858,14.454q22.995,0,38.106-18.4l.438-.438-12.7-15.33-.438.438c-8.322,7.884-17.082,12.264-26.28,12.264-9.636,0-17.958-3.5-24.09-10.074-6.57-6.57-9.636-14.892-9.636-24.966s3.066-18.4,9.636-24.966,14.454-9.636,24.09-9.636c9.2,0,17.958,4.38,26.28,12.264l.438.438,12.7-15.33Z" transform="translate(0 -52.128)" fill="#3042c6"/>
    <path id="Path_60" data-name="Path 60" d="M17.082,229.6C5.694,240.112,0,253.69,0,271.21s5.694,31.1,17.082,41.61c10.512,9.636,23.652,14.454,39.858,14.454q22.995,0,38.106-18.4l.438-.438-12.7-15.33-.438.438c-8.322,7.884-17.082,12.264-26.28,12.264-9.636,0-17.958-3.5-24.09-10.074-6.57-6.57-9.636-14.892-9.636-24.966s3.066-18.4,9.636-24.966,14.454-9.636,24.09-9.636c9.2,0,17.958,4.38,26.28,12.264l.438.438,11.826-14.454h0v-.876" transform="translate(0 -64.074)" fill="#32357f"/>
    <g id="Group_12" data-name="Group 12" transform="translate(93.294 88)">
      <path id="Path_61" data-name="Path 61" d="M196.242,135.3a93.131,93.131,0,0,1,29.784-20.586,80.28,80.28,0,0,1,33.726-7.008,83.73,83.73,0,0,1,34.164,7.008,90.711,90.711,0,0,1,29.346,21.024l.438.876h24.966l-.876-1.752a107.473,107.473,0,0,0-38.982-33.726C293.04,92.38,276.834,88,259.752,88a104.816,104.816,0,0,0-49.494,12.264,108.637,108.637,0,0,0-38.982,34.164l-.876,1.752h25.4l.438-.876Z" transform="translate(-170.4 -88)" fill="#e92f30"/>
      <path id="Path_62" data-name="Path 62" d="M196.242,135.3a93.131,93.131,0,0,1,29.784-20.586,80.28,80.28,0,0,1,33.726-7.008,83.73,83.73,0,0,1,34.164,7.008,90.711,90.711,0,0,1,29.346,21.024l.438.876h24.966l-.876-1.752a107.473,107.473,0,0,0-38.982-33.726C293.04,92.38,276.834,88,259.752,88a104.816,104.816,0,0,0-49.494,12.264,108.637,108.637,0,0,0-38.982,34.164l-.876,1.752h25.4l.438-.876Z" transform="translate(-170.4 -88)" fill="#e92f30"/>
    </g>
    <path id="Path_63" data-name="Path 63" d="M196.242,135.3a93.131,93.131,0,0,1,29.784-20.586,80.28,80.28,0,0,1,33.726-7.008,83.73,83.73,0,0,1,34.164,7.008,90.711,90.711,0,0,1,29.346,21.024l.438.876h24.966l-.876-1.752a107.473,107.473,0,0,0-38.982-33.726C293.04,92.38,276.834,88,259.752,88a104.816,104.816,0,0,0-49.494,12.264,108.637,108.637,0,0,0-38.982,34.164l-.876,1.752h25.4l.438-.876Z" transform="translate(-77.106)" fill="#ff3e48"/>
    <path id="Path_64" data-name="Path 64" d="M312.79,113.864A103.566,103.566,0,0,0,263.3,101.6c-17.082,0-33.726,4.38-49.494,12.264-13.578,7.008-24.966,15.33-34.6,28.47h20.148v-.876a93.131,93.131,0,0,1,29.784-20.586,80.28,80.28,0,0,1,33.726-7.008,83.73,83.73,0,0,1,34.164,7.008A90.711,90.711,0,0,1,326.368,141.9l.438.876h20.148C338.194,129.194,326.368,120.872,312.79,113.864Z" transform="translate(-81.088 -6.154)" fill="#e92f30"/>
    <path id="Path_65" data-name="Path 65" d="M205.578,148.488h0c8.76-8.76,18.834-16.644,29.784-21.462a80.279,80.279,0,0,1,33.726-7.008,83.73,83.73,0,0,1,34.164,7.008A90.71,90.71,0,0,1,332.6,148.05l.438.876h14.016a111.034,111.034,0,0,0-28.032-21.462A103.566,103.566,0,0,0,269.526,115.2c-17.082,0-33.726,4.38-49.494,12.264A103.8,103.8,0,0,0,192,148.926h13.578Z" transform="translate(-86.88 -12.308)" fill="#d3000b"/>
    <g id="Group_13" data-name="Group 13" transform="translate(59.568 183.484)">
      <path id="Path_66" data-name="Path 66" d="M432,289.6v64.824h21.9V304.93C445.14,298.8,440.76,293.98,432,289.6Z" transform="translate(-255.048 -274.708)" fill="#0a0e49"/>
      <path id="Path_67" data-name="Path 67" d="M321.2,262.4c-3.066,0-9.2,0-9.2.438v50.37c0,8.322,1.314,15.33,6.132,20.148,4.38,5.256,10.074,7.884,17.52,7.884s14.016-1.314,19.71-4.818h.438v-.438l4.818-20.586-1.314.876c-6.132,3.5-10.512,5.256-15.768,5.256-7.008,0-9.636-3.942-9.636-12.264V262.838A123.091,123.091,0,0,0,321.2,262.4Z" transform="translate(-200.748 -262.4)" fill="#0a0e49"/>
      <path id="Path_68" data-name="Path 68" d="M200,294.3v56.5h21.9V281.6C213.14,285.1,204.38,289.484,200,294.3Z" transform="translate(-150.068 -271.088)" fill="#0a0e49"/>
      <path id="Path_69" data-name="Path 69" d="M108.8,379.688c14.016-.876,25.842-7.008,35.04-18.4l.438-.438L132.452,346.4A206.587,206.587,0,0,0,108.8,379.688Z" transform="translate(-108.8 -300.41)" fill="#0a0e49"/>
    </g>
  </g>
</svg>
