<svg xmlns="http://www.w3.org/2000/svg" width="500.036" height="90.329" viewBox="0 0 500.036 90.329">
  <g id="hsbc" transform="translate(0 -203.2)">
    <g id="Group_7" data-name="Group 7" transform="translate(0 203.2)">
      <path id="Path_31" data-name="Path 31" d="M62.908,244.312V216.085c0-4.033-1.613-8.065-11.291-8.065V205.6H87.1v2.42c-9.678,0-11.291,4.033-11.291,8.065V279.8c0,4.033,1.613,8.065,11.291,8.065v2.42H51.617v-2.42c9.678,0,11.291-4.033,11.291-8.065V249.152H24.2V279.8c0,4.033,1.613,8.065,11.291,8.065v2.42H0v-2.42c9.678,0,11.291-4.033,11.291-8.065V216.085c0-4.033-1.613-8.065-11.291-8.065V205.6H35.486v2.42c-9.678,0-11.291,4.033-11.291,8.065v28.228H62.908" transform="translate(0 -203.18)" fill="#f2f2f2"/>
      <path id="Path_32" data-name="Path 32" d="M88.8,264.482h3.226c4.033,12.1,12.9,22.582,26.615,22.582,10.485,0,16.937-8.872,14.517-18.55-4.839-17.743-40.326-18.55-40.326-42.745,0-12.9,9.678-20.969,22.582-20.969,13.711,0,19.356,9.678,22.582,0h2.42l2.42,27.421H139.61c-3.226-12.1-11.291-21.776-23.389-21.776-7.259,0-13.711,4.033-13.711,12.1,0,7.259,8.065,12.9,13.711,16.13,16.937,10.485,29.034,16.13,29.034,31.454,0,11.291-9.678,23.389-26.615,23.389-12.9,0-22.582-9.678-23.389,0h-2.42L88.8,264.482" transform="translate(0.723 -203.187)" fill="#f2f2f2"/>
      <path id="Path_33" data-name="Path 33" d="M187.493,243.506c12.9,0,20.163-5.646,20.163-16.13,0-9.678-6.452-14.517-15.324-16.13-12.1-.807-16.13-.807-16.13,3.226v29.034h11.291m-10.485,34.68c0,4.839.807,6.452,10.485,6.452,12.9,0,23.389-4.033,23.389-18.55,0-15.324-15.324-17.743-27.421-17.743h-6.452Zm-12.9-62.1c0-4.033-1.613-8.065-12.1-8.065V205.6H185.88c19.356,0,34.68,4.839,34.68,21.776,0,10.485-7.259,16.13-16.937,18.55h0c11.291,2.42,20.969,8.872,20.969,20.969,0,15.324-12.9,23.389-33.067,23.389H151.2v-2.42c10.485,0,12.1-4.033,12.1-8.065V216.085Z" transform="translate(1.23 -203.18)" fill="#f2f2f2"/>
      <path id="Path_34" data-name="Path 34" d="M301.405,232.234h-3.226c-4.033-13.711-12.9-23.389-27.421-23.389-20.969,0-29.841,16.937-29.841,39.519,0,17.743,9.678,37.1,29.841,37.1,12.1,0,20.969-4.033,29.841-12.9l2.42,2.42c-8.065,9.678-20.969,16.13-33.067,16.13-25,0-43.552-16.13-43.552-43.552,0-25,17.743-44.358,43.552-44.358,17.743,0,23.389,10.485,28.228,0h2.42l.807,29.034" transform="translate(1.842 -203.2)" fill="#f2f2f2"/>
    </g>
    <rect id="Rectangle_1" data-name="Rectangle 1" width="85.49" height="85.49" transform="translate(371.801 203.2)" fill="#fff"/>
    <rect id="Rectangle_2" data-name="Rectangle 2" width="85.49" height="42.745" transform="translate(371.801 246.752)" fill="#daeae7"/>
    <g id="Group_8" data-name="Group 8" transform="translate(371.801 203.2)">
      <path id="Path_35" data-name="Path 35" d="M368.8,203.2h85.49l-42.745,42.745L368.8,203.2" transform="translate(-368.8 -203.2)" fill="#ee3725"/>
      <path id="Path_36" data-name="Path 36" d="M368.8,288.345h85.49L411.545,245.6,368.8,288.345" transform="translate(-368.8 -202.855)" fill="#ee3725"/>
    </g>
    <path id="Path_37" data-name="Path 37" d="M369.145,203.2v85.49L326.4,245.945,369.145,203.2" transform="translate(2.656)" fill="#ff6700"/>
    <path id="Path_38" data-name="Path 38" d="M369.145,219.2v69.36L326.4,245.815,369.145,219.2" transform="translate(2.656 0.13)" fill="#ee3725"/>
    <path id="Path_39" data-name="Path 39" d="M453.6,203.2v85.49l42.745-42.745L453.6,203.2" transform="translate(3.691)" fill="#ff6700"/>
    <path id="Path_40" data-name="Path 40" d="M453.6,219.2v69.36l42.745-42.745L453.6,219.2" transform="translate(3.691 0.13)" fill="#ee3725"/>
    <path id="Path_41" data-name="Path 41" d="M384.124,218.524h54.843L454.29,203.2H368.8Z" transform="translate(3.001)" fill="#ff6700"/>
    <g id="Group_9" data-name="Group 9" transform="translate(352.445 269.334)">
      <path id="Path_42" data-name="Path 42" d="M453.6,268.8v19.356L472.956,268.8Z" transform="translate(-348.754 -268.8)" fill="#d60f05"/>
      <path id="Path_43" data-name="Path 43" d="M368.8,288.156h85.49L434.934,268.8H388.156Z" transform="translate(-349.444 -268.8)" fill="#d60f05"/>
      <path id="Path_44" data-name="Path 44" d="M349.6,268.8l19.356,19.356V268.8Z" transform="translate(-349.6 -268.8)" fill="#d60f05"/>
    </g>
    <g id="Group_10" data-name="Group 10" transform="translate(0 203.2)">
      <path id="Path_45" data-name="Path 45" d="M297.379,203.2c-4.033,10.485-10.485,0-28.228,0-25,0-42.745,18.55-43.552,42.745h14.517c.807-21.776,9.678-37.906,29.841-37.906,14.517,0,24.2,9.678,27.421,23.389h3.226L299.8,203.2Z" transform="translate(1.836 -203.2)" fill="#f2f2f2"/>
      <path id="Path_46" data-name="Path 46" d="M185.873,205.6H152v2.42c10.485,0,12.1,4.033,12.1,8.065v29.841h39.519c9.678-2.42,16.937-7.259,16.937-18.55C221.36,211.246,206.036,205.6,185.873,205.6Zm1.613,37.906H177V214.472c0-4.839,4.033-4.033,16.13-3.226,8.872,1.613,15.324,7.259,15.324,16.13C208.456,237.86,200.391,243.506,187.486,243.506Z" transform="translate(1.237 -203.18)" fill="#f2f2f2"/>
      <path id="Path_47" data-name="Path 47" d="M137.965,204.007c-3.226,9.678-8.872,0-22.582,0-12.1,0-22.582,8.872-22.582,20.969,0,9.678,5.646,16.13,13.711,20.969h25.808c-4.033-2.42-8.872-5.646-14.517-8.872s-13.711-8.872-13.711-16.13c0-8.065,5.646-12.1,13.711-12.1,12.1,0,20.163,9.678,23.389,21.776h3.226L142,203.2h-4.033Z" transform="translate(0.755 -203.2)" fill="#f2f2f2"/>
      <path id="Path_48" data-name="Path 48" d="M51.617,208.02c9.678,0,11.291,4.033,11.291,8.065v28.228H24.2V216.085c0-4.033,1.613-8.065,11.291-8.065V205.6H0v2.42c9.678,0,11.291,4.033,11.291,8.065v29.841H75.812V216.085c0-4.033,1.613-8.065,11.291-8.065V205.6H51.617Z" transform="translate(0 -203.18)" fill="#f2f2f2"/>
    </g>
  </g>
</svg>
