<svg id="mastercard" xmlns="http://www.w3.org/2000/svg" width="513" height="329.289" viewBox="0 0 513 329.289">
  <path id="Path_1" data-name="Path 1" d="M164.66,0C73.867,0,0,73.859,0,164.645S73.867,329.289,164.66,329.289,329.32,255.43,329.32,164.645,255.453,0,164.66,0Zm0,0" fill="#ffbc4f"/>
  <path id="Path_2" data-name="Path 2" d="M347.34,0C256.547,0,182.68,73.859,182.68,164.645s73.867,164.645,164.66,164.645S512,255.43,512,164.645,438.133,0,347.34,0Zm0,0" transform="translate(1)" fill="#ff7d4f"/>
  <g id="Group_1" data-name="Group 1">
    <path id="Path_3" data-name="Path 3" d="M246.813,218.676a15,15,0,0,0-15-15H187.367a163.276,163.276,0,0,0,10.5,30h33.941A15,15,0,0,0,246.813,218.676Zm0,0" fill="#ffbc4f"/>
    <path id="Path_4" data-name="Path 4" d="M246.813,121.051a15,15,0,0,0-15-15H193.465a163.24,163.24,0,0,0-8.3,30h46.645A15,15,0,0,0,246.813,121.051Zm0,0" fill="#ffbc4f"/>
    <path id="Path_5" data-name="Path 5" d="M288.078,169.863a15,15,0,0,0-15-15h-90.1c-.191,3.238-.3,6.5-.3,9.781a165.334,165.334,0,0,0,1.242,20.219h89.156A15,15,0,0,0,288.078,169.863Zm0,0" fill="#ffbc4f"/>
  </g>
</svg>
