<svg xmlns="http://www.w3.org/2000/svg" width="513" height="155.528" viewBox="0 0 513 155.528">
  <g id="visa" transform="translate(0 -175.6)">
    <path id="Path_6" data-name="Path 6" d="M184.8,326.971,210.857,180.4h40.714L226.329,326.971Z" transform="translate(3.3 0.086)" fill="#3c58bf"/>
    <path id="Path_7" data-name="Path 7" d="M184.8,326.971,218.186,180.4h33.386L226.329,326.971Z" transform="translate(3.3 0.086)" fill="#293688"/>
    <path id="Path_8" data-name="Path 8" d="M372.586,182.114c-8.143-3.257-21.171-6.514-37.457-6.514-40.714,0-70.029,20.357-70.029,49.671,0,21.986,20.357,33.386,36.643,40.714s21.171,12.214,21.171,18.729c0,9.771-13.029,14.657-24.429,14.657-16.286,0-25.243-2.443-39.086-8.143l-5.7-2.443L248,322.171c9.771,4.071,27.686,8.143,46.414,8.143,43.157,0,71.657-20.357,71.657-51.3,0-17.1-10.586-30.129-35.014-40.714-14.657-7.329-23.614-11.4-23.614-18.729,0-6.514,7.329-13.029,23.614-13.029,13.843,0,23.614,2.443,30.943,5.7l4.071,1.629,6.514-31.757Z" transform="translate(4.429 0)" fill="#3c58bf"/>
    <path id="Path_9" data-name="Path 9" d="M372.586,182.114c-8.143-3.257-21.171-6.514-37.457-6.514-40.714,0-62.7,20.357-62.7,49.671,0,21.986,13.029,33.386,29.314,40.714s21.171,12.214,21.171,18.729c0,9.771-13.029,14.657-24.429,14.657-16.286,0-25.243-2.443-39.086-8.143l-5.7-2.443L248,322.171c9.771,4.071,27.686,8.143,46.414,8.143,43.157,0,71.657-20.357,71.657-51.3,0-17.1-10.586-30.129-35.014-40.714-14.657-7.329-23.614-11.4-23.614-18.729,0-6.514,7.329-13.029,23.614-13.029,13.843,0,23.614,2.443,30.943,5.7l4.071,1.629,6.514-31.757Z" transform="translate(4.429 0)" fill="#293688"/>
    <path id="Path_10" data-name="Path 10" d="M440.643,180.4c-9.771,0-17.1.814-21.171,10.586L358.4,326.971h43.971l8.143-24.429h52.114l4.886,24.429H506.6L472.4,180.4Zm-18.729,97.714c2.443-7.329,16.286-43.157,16.286-43.157s3.257-8.957,5.7-14.657l2.443,13.843s8.143,36.643,9.771,44.786h-34.2Z" transform="translate(6.4 0.086)" fill="#3c58bf"/>
    <path id="Path_11" data-name="Path 11" d="M450.414,180.4c-9.771,0-17.1.814-21.171,10.586L358.4,326.971h43.971l8.143-24.429h52.114l4.886,24.429H506.6L472.4,180.4Zm-28.5,97.714c3.257-8.143,16.286-43.157,16.286-43.157s3.257-8.957,5.7-14.657l2.443,13.843s8.143,36.643,9.771,44.786h-34.2Z" transform="translate(6.4 0.086)" fill="#293688"/>
    <path id="Path_12" data-name="Path 12" d="M112.271,282.986,108.2,261.814c-7.329-24.429-30.943-51.3-57-64.329L87.843,327.771h43.971L197.771,181.2H153.8Z" transform="translate(0.914 0.1)" fill="#3c58bf"/>
    <path id="Path_13" data-name="Path 13" d="M112.271,282.986,108.2,261.814c-7.329-24.429-30.943-51.3-57-64.329L87.843,327.771h43.971L197.771,181.2H161.943Z" transform="translate(0.914 0.1)" fill="#293688"/>
    <path id="Path_14" data-name="Path 14" d="M0,180.4l7.329,1.629c52.114,12.214,87.943,43.157,101.786,79.8L94.457,192.614c-2.443-9.771-9.771-12.214-18.729-12.214Z" transform="translate(0 0.086)" fill="#ffbc00"/>
    <path id="Path_15" data-name="Path 15" d="M0,180.4H0c52.114,12.214,95.271,43.971,109.114,80.614L95.271,203.2a19.877,19.877,0,0,0-19.543-15.471Z" transform="translate(0 0.086)" fill="#f7981d"/>
    <path id="Path_16" data-name="Path 16" d="M0,180.4H0c52.114,12.214,95.271,43.971,109.114,80.614l-9.771-31.757c-2.443-9.771-5.7-19.543-17.1-23.614Z" transform="translate(0 0.086)" fill="#ed7c00"/>
    <g id="Group_2" data-name="Group 2" transform="translate(52.929 196.771)">
      <path id="Path_17" data-name="Path 17" d="M152.971,277.829l-27.686-27.686-13.029,30.943L109,260.729c-7.329-24.429-30.943-51.3-57-64.329L88.643,326.686h43.971Z" transform="translate(-52 -196.4)" fill="#051244"/>
      <path id="Path_18" data-name="Path 18" d="M226.329,325.029,191.314,289.2,184.8,325.029Z" transform="translate(-49.629 -194.743)" fill="#051244"/>
      <path id="Path_19" data-name="Path 19" d="M318.843,274.8h0c3.257,3.257,4.886,5.7,4.071,8.957,0,9.771-13.029,14.657-24.429,14.657-16.286,0-25.243-2.443-39.086-8.143l-5.7-2.443L248,321.214c9.771,4.071,27.686,8.143,46.414,8.143,26.057,0,47.229-7.329,59.443-20.357Z" transform="translate(-48.5 -195)" fill="#051244"/>
      <path id="Path_20" data-name="Path 20" d="M364,326.271h38.271l8.143-24.429h52.114l4.886,24.429H506.5l-13.843-59.443L443.8,219.6l2.443,13.029s8.143,36.643,9.771,44.786h-34.2c3.257-8.143,16.286-43.157,16.286-43.157s3.257-8.957,5.7-14.657" transform="translate(-46.429 -195.986)" fill="#051244"/>
    </g>
  </g>
</svg>
